<?xml version="1.0" encoding="iso-8859-1"?>
<!-- Uploaded to: SVG Repo, www.svgrepo.com, Generator: SVG Repo Mixer Tools -->
<svg height="800px" width="800px" version="1.1" id="Layer_1" xmlns="http://www.w3.org/2000/svg" xmlns:xlink="http://www.w3.org/1999/xlink" 
	 viewBox="0 0 512 512" xml:space="preserve">
<path style="fill:#F4B2B0;" d="M468.78,293.068v-24.49c0-52.392-42.472-94.864-94.864-94.864H138.085
	c-52.392,0-94.864,42.472-94.864,94.864v24.491c-0.034,0.629-0.051,1.262-0.051,1.9c0,19.595,15.885,35.48,35.48,35.48
	c19.456,0,35.246-15.662,35.471-35.064c0.224,19.402,16.015,35.064,35.471,35.064s35.246-15.662,35.471-35.064
	c0.224,19.402,16.015,35.064,35.471,35.064s35.246-15.662,35.471-35.064c0.224,19.402,16.015,35.064,35.471,35.064
	c19.456,0,35.246-15.662,35.471-35.064c0.224,19.402,16.015,35.064,35.471,35.064c19.456,0,35.246-15.662,35.471-35.064
	c0.224,19.402,16.015,35.064,35.471,35.064c19.596,0,35.48-15.885,35.48-35.48C468.832,294.331,468.813,293.698,468.78,293.068z"/>
<path style="fill:#B3404A;" d="M498.526,456.662h-16.274v-57.984c0-7.44-6.032-13.474-13.474-13.474
	c-0.252,0-0.497,0.024-0.745,0.038c-0.214-0.009-0.424-0.032-0.641-0.032h-95.089c-7.442,0-13.474,6.034-13.474,13.474
	c0,7.44,6.032,13.474,13.474,13.474h83.002v44.505H56.695v-44.505h240.036c7.441,0,13.474-6.034,13.474-13.474
	c0-7.44-6.032-13.474-13.474-13.474H56.695v-46.506c6.609,3.331,14.064,5.22,21.955,5.22c13.905,0,26.527-5.897,35.469-15.32
	c8.942,9.422,21.566,15.32,35.471,15.32s26.527-5.897,35.469-15.32c8.942,9.422,21.566,15.32,35.471,15.32
	c13.906,0,26.527-5.895,35.471-15.32c8.942,9.425,21.565,15.32,35.471,15.32c13.905,0,26.527-5.897,35.469-15.32
	c8.942,9.422,21.566,15.32,35.471,15.32s26.527-5.897,35.471-15.32c8.942,9.422,21.565,15.32,35.47,15.32
	c26.993,0,48.954-21.962,48.954-48.955c0-0.748-0.018-1.492-0.053-2.231v-24.158c0-59.738-48.6-108.338-108.338-108.338H269.474
	v-40.439c0-7.44-6.032-13.474-13.474-13.474l0,0l0,0c-8.029,0-17.601-4.382-18.153-16.737c-0.024-0.542-0.036-1.086-0.036-1.633
	c0-12.95,7.13-24.916,18.189-31.236c11.059,6.318,18.189,18.285,18.189,31.236c0,0.547-0.012,1.091-0.036,1.633
	c-0.335,7.435,5.418,13.732,12.853,14.068c7.435,0.365,13.731-5.418,14.067-12.853c0.043-0.944,0.063-1.893,0.063-2.848
	c0-25.82-16.194-49.403-40.296-58.683c-3.116-1.201-6.567-1.201-9.684,0c-24.099,9.281-40.293,32.864-40.293,58.683
	c0,0.955,0.022,1.904,0.063,2.842c0.984,22.011,15.132,35.731,31.6,40.537v28.902H138.085c-59.738,0-108.338,48.6-108.338,108.338
	v24.16c-0.034,0.74-0.053,1.483-0.053,2.23c0,0.687,0.024,1.369,0.053,2.049V456.66H13.474C6.032,456.66,0,462.694,0,470.134
	c0,7.44,6.032,13.474,13.474,13.474h29.408c0.113,0.003,0.225,0.018,0.338,0.018h425.56c0.115,0,0.225-0.015,0.338-0.018h29.409
	c7.442,0,13.474-6.034,13.474-13.474C512,462.694,505.968,456.662,498.526,456.662z M56.695,268.579
	c0-44.88,36.512-81.39,81.39-81.39h235.83c44.879,0,81.391,36.512,81.391,81.39v24.49c0,0.24,0.007,0.477,0.019,0.717
	c0.022,0.392,0.032,0.787,0.032,1.183c0,12.136-9.872,22.008-22.007,22.008c-11.99,0-21.858-9.755-21.997-21.747
	c-0.085-7.381-6.093-13.319-13.474-13.319c-7.381,0-13.387,5.938-13.474,13.319c-0.139,11.99-10.007,21.747-21.997,21.747
	c-11.99,0-21.86-9.755-21.997-21.747c-0.085-7.381-6.093-13.319-13.474-13.319s-13.387,5.938-13.474,13.319
	c-0.139,11.99-10.006,21.747-21.997,21.747c-11.992,0-21.86-9.755-21.997-21.747c-0.085-7.381-6.093-13.319-13.474-13.319
	c-7.381,0-13.387,5.938-13.474,13.319c-0.139,11.99-10.007,21.747-21.997,21.747s-21.858-9.755-21.997-21.747
	c-0.085-7.381-6.091-13.319-13.474-13.319c-7.381,0-13.387,5.938-13.474,13.319c-0.139,11.99-10.007,21.747-21.997,21.747
	s-21.86-9.755-21.997-21.747c-0.085-7.381-6.093-13.319-13.474-13.319c-7.381,0-13.387,5.938-13.474,13.319
	c-0.139,11.99-10.006,21.747-21.997,21.747c-11.788,0-21.414-9.324-21.955-20.981v-2.925v-24.491H56.695z"/>
</svg>